<mxfile host="app.diagrams.net" modified="2024-04-01T22:10:24.911Z" agent="Mozilla/5.0 (Windows NT 10.0; Win64; x64) AppleWebKit/537.36 (KHTML, like Gecko) Chrome/123.0.0.0 Safari/537.36" etag="JEJ1n_dgp_mpFW2tPAOk" version="23.1.8" type="device">
  <diagram id="lB_gaPHrdzuzTB2c2gHm" name="PÃ¡gina-1">
    <mxGraphModel dx="1301" dy="571" grid="1" gridSize="10" guides="1" tooltips="1" connect="1" arrows="1" fold="1" page="1" pageScale="1" pageWidth="1169" pageHeight="827" math="0" shadow="0">
      <root>
        <mxCell id="0" />
        <mxCell id="1" parent="0" />
        <mxCell id="q-Jmz6Y3Csw-cmWrr6Wz-1" value="guest_arrival&lt;div&gt;&lt;br/&gt;&lt;/div&gt;" style="text;html=1;align=center;verticalAlign=middle;resizable=0;points=[];autosize=1;strokeColor=none;fillColor=none;" vertex="1" parent="1">
          <mxGeometry x="540" y="20" width="90" height="40" as="geometry" />
        </mxCell>
        <mxCell id="q-Jmz6Y3Csw-cmWrr6Wz-2" value="inicio_objeto" style="text;html=1;align=center;verticalAlign=middle;resizable=0;points=[];autosize=1;strokeColor=none;fillColor=none;" vertex="1" parent="1">
          <mxGeometry x="5" y="78" width="90" height="30" as="geometry" />
        </mxCell>
        <mxCell id="q-Jmz6Y3Csw-cmWrr6Wz-3" value="datos&lt;div&gt;&lt;br/&gt;&lt;/div&gt;" style="text;html=1;align=center;verticalAlign=middle;resizable=0;points=[];autosize=1;strokeColor=none;fillColor=none;" vertex="1" parent="1">
          <mxGeometry x="560" y="78" width="50" height="40" as="geometry" />
        </mxCell>
        <mxCell id="q-Jmz6Y3Csw-cmWrr6Wz-4" value="fin_objeto" style="text;html=1;align=center;verticalAlign=middle;resizable=0;points=[];autosize=1;strokeColor=none;fillColor=none;" vertex="1" parent="1">
          <mxGeometry x="1070" y="78" width="80" height="30" as="geometry" />
        </mxCell>
        <mxCell id="q-Jmz6Y3Csw-cmWrr6Wz-5" value="" style="endArrow=none;html=1;rounded=0;exitX=0.489;exitY=0.95;exitDx=0;exitDy=0;exitPerimeter=0;" edge="1" parent="1" source="q-Jmz6Y3Csw-cmWrr6Wz-1" target="q-Jmz6Y3Csw-cmWrr6Wz-2">
          <mxGeometry width="50" height="50" relative="1" as="geometry">
            <mxPoint x="390" y="350" as="sourcePoint" />
            <mxPoint x="440" y="300" as="targetPoint" />
            <Array as="points">
              <mxPoint x="50" y="58" />
            </Array>
          </mxGeometry>
        </mxCell>
        <mxCell id="q-Jmz6Y3Csw-cmWrr6Wz-6" value="" style="endArrow=none;html=1;rounded=0;" edge="1" parent="1" source="q-Jmz6Y3Csw-cmWrr6Wz-3" target="q-Jmz6Y3Csw-cmWrr6Wz-1">
          <mxGeometry width="50" height="50" relative="1" as="geometry">
            <mxPoint x="390" y="350" as="sourcePoint" />
            <mxPoint x="440" y="300" as="targetPoint" />
          </mxGeometry>
        </mxCell>
        <mxCell id="q-Jmz6Y3Csw-cmWrr6Wz-7" value="" style="endArrow=none;html=1;rounded=0;exitX=0.533;exitY=0.975;exitDx=0;exitDy=0;exitPerimeter=0;" edge="1" parent="1" source="q-Jmz6Y3Csw-cmWrr6Wz-1" target="q-Jmz6Y3Csw-cmWrr6Wz-4">
          <mxGeometry width="50" height="50" relative="1" as="geometry">
            <mxPoint x="390" y="350" as="sourcePoint" />
            <mxPoint x="440" y="300" as="targetPoint" />
            <Array as="points">
              <mxPoint x="1110" y="60" />
            </Array>
          </mxGeometry>
        </mxCell>
        <mxCell id="q-Jmz6Y3Csw-cmWrr6Wz-8" value="&lt;font color=&quot;#007fff&quot;&gt;{&lt;/font&gt;" style="text;html=1;align=center;verticalAlign=middle;resizable=0;points=[];autosize=1;strokeColor=none;fillColor=none;" vertex="1" parent="1">
          <mxGeometry x="35" y="118" width="30" height="30" as="geometry" />
        </mxCell>
        <mxCell id="q-Jmz6Y3Csw-cmWrr6Wz-9" value="&lt;font color=&quot;#007fff&quot;&gt;}&lt;/font&gt;" style="text;html=1;align=center;verticalAlign=middle;resizable=0;points=[];autosize=1;strokeColor=none;fillColor=none;" vertex="1" parent="1">
          <mxGeometry x="1095" y="118" width="30" height="30" as="geometry" />
        </mxCell>
        <mxCell id="q-Jmz6Y3Csw-cmWrr6Wz-10" value="" style="endArrow=none;html=1;rounded=0;" edge="1" parent="1" source="q-Jmz6Y3Csw-cmWrr6Wz-2" target="q-Jmz6Y3Csw-cmWrr6Wz-8">
          <mxGeometry width="50" height="50" relative="1" as="geometry">
            <mxPoint x="390" y="350" as="sourcePoint" />
            <mxPoint x="440" y="300" as="targetPoint" />
          </mxGeometry>
        </mxCell>
        <mxCell id="q-Jmz6Y3Csw-cmWrr6Wz-11" value="" style="endArrow=none;html=1;rounded=0;" edge="1" parent="1" source="q-Jmz6Y3Csw-cmWrr6Wz-9" target="q-Jmz6Y3Csw-cmWrr6Wz-4">
          <mxGeometry width="50" height="50" relative="1" as="geometry">
            <mxPoint x="390" y="350" as="sourcePoint" />
            <mxPoint x="440" y="300" as="targetPoint" />
          </mxGeometry>
        </mxCell>
        <mxCell id="q-Jmz6Y3Csw-cmWrr6Wz-12" value="separador" style="text;html=1;align=center;verticalAlign=middle;resizable=0;points=[];autosize=1;strokeColor=none;fillColor=none;" vertex="1" parent="1">
          <mxGeometry x="545" y="130" width="80" height="30" as="geometry" />
        </mxCell>
        <mxCell id="q-Jmz6Y3Csw-cmWrr6Wz-13" value="campo2" style="text;html=1;align=center;verticalAlign=middle;resizable=0;points=[];autosize=1;strokeColor=none;fillColor=none;" vertex="1" parent="1">
          <mxGeometry x="905" y="130" width="70" height="30" as="geometry" />
        </mxCell>
        <mxCell id="q-Jmz6Y3Csw-cmWrr6Wz-14" value="campo1" style="text;html=1;align=center;verticalAlign=middle;resizable=0;points=[];autosize=1;strokeColor=none;fillColor=none;" vertex="1" parent="1">
          <mxGeometry x="155" y="130" width="70" height="30" as="geometry" />
        </mxCell>
        <mxCell id="q-Jmz6Y3Csw-cmWrr6Wz-15" value="" style="endArrow=none;html=1;rounded=0;" edge="1" parent="1" source="q-Jmz6Y3Csw-cmWrr6Wz-14" target="q-Jmz6Y3Csw-cmWrr6Wz-3">
          <mxGeometry width="50" height="50" relative="1" as="geometry">
            <mxPoint x="390" y="350" as="sourcePoint" />
            <mxPoint x="440" y="300" as="targetPoint" />
            <Array as="points">
              <mxPoint x="190" y="98" />
            </Array>
          </mxGeometry>
        </mxCell>
        <mxCell id="q-Jmz6Y3Csw-cmWrr6Wz-16" value="" style="endArrow=none;html=1;rounded=0;" edge="1" parent="1" source="q-Jmz6Y3Csw-cmWrr6Wz-3" target="q-Jmz6Y3Csw-cmWrr6Wz-13">
          <mxGeometry width="50" height="50" relative="1" as="geometry">
            <mxPoint x="390" y="350" as="sourcePoint" />
            <mxPoint x="440" y="300" as="targetPoint" />
            <Array as="points">
              <mxPoint x="940" y="100" />
            </Array>
          </mxGeometry>
        </mxCell>
        <mxCell id="q-Jmz6Y3Csw-cmWrr6Wz-17" value="" style="endArrow=none;html=1;rounded=0;" edge="1" parent="1" source="q-Jmz6Y3Csw-cmWrr6Wz-12" target="q-Jmz6Y3Csw-cmWrr6Wz-3">
          <mxGeometry width="50" height="50" relative="1" as="geometry">
            <mxPoint x="390" y="350" as="sourcePoint" />
            <mxPoint x="440" y="300" as="targetPoint" />
          </mxGeometry>
        </mxCell>
        <mxCell id="q-Jmz6Y3Csw-cmWrr6Wz-19" value="&lt;font color=&quot;#007fff&quot;&gt;,&lt;/font&gt;&lt;div&gt;&lt;br&gt;&lt;/div&gt;" style="text;html=1;align=center;verticalAlign=middle;resizable=0;points=[];autosize=1;strokeColor=none;fillColor=none;" vertex="1" parent="1">
          <mxGeometry x="570" y="180" width="30" height="40" as="geometry" />
        </mxCell>
        <mxCell id="q-Jmz6Y3Csw-cmWrr6Wz-21" value="etiqueta_dato1" style="text;html=1;align=center;verticalAlign=middle;resizable=0;points=[];autosize=1;strokeColor=none;fillColor=none;" vertex="1" parent="1">
          <mxGeometry x="10" y="178" width="100" height="30" as="geometry" />
        </mxCell>
        <mxCell id="q-Jmz6Y3Csw-cmWrr6Wz-22" value="valor_dato1" style="text;html=1;align=center;verticalAlign=middle;resizable=0;points=[];autosize=1;strokeColor=none;fillColor=none;" vertex="1" parent="1">
          <mxGeometry x="375" y="178" width="90" height="30" as="geometry" />
        </mxCell>
        <mxCell id="q-Jmz6Y3Csw-cmWrr6Wz-23" value="igualdad" style="text;strokeColor=none;align=center;fillColor=none;html=1;verticalAlign=middle;whiteSpace=wrap;rounded=0;" vertex="1" parent="1">
          <mxGeometry x="210" y="180" width="60" height="30" as="geometry" />
        </mxCell>
        <mxCell id="q-Jmz6Y3Csw-cmWrr6Wz-24" value="etiqueta_dato2" style="text;html=1;align=center;verticalAlign=middle;resizable=0;points=[];autosize=1;strokeColor=none;fillColor=none;" vertex="1" parent="1">
          <mxGeometry x="695" y="179" width="100" height="30" as="geometry" />
        </mxCell>
        <mxCell id="q-Jmz6Y3Csw-cmWrr6Wz-25" value="valor_dato2" style="text;html=1;align=center;verticalAlign=middle;resizable=0;points=[];autosize=1;strokeColor=none;fillColor=none;" vertex="1" parent="1">
          <mxGeometry x="1050" y="178" width="90" height="30" as="geometry" />
        </mxCell>
        <mxCell id="q-Jmz6Y3Csw-cmWrr6Wz-26" value="igualdad" style="text;strokeColor=none;align=center;fillColor=none;html=1;verticalAlign=middle;whiteSpace=wrap;rounded=0;" vertex="1" parent="1">
          <mxGeometry x="910" y="180" width="60" height="30" as="geometry" />
        </mxCell>
        <mxCell id="q-Jmz6Y3Csw-cmWrr6Wz-30" value="" style="endArrow=none;html=1;rounded=0;" edge="1" parent="1" source="q-Jmz6Y3Csw-cmWrr6Wz-24" target="q-Jmz6Y3Csw-cmWrr6Wz-13">
          <mxGeometry width="50" height="50" relative="1" as="geometry">
            <mxPoint x="390" y="350" as="sourcePoint" />
            <mxPoint x="440" y="300" as="targetPoint" />
            <Array as="points">
              <mxPoint x="745" y="160" />
              <mxPoint x="940" y="160" />
            </Array>
          </mxGeometry>
        </mxCell>
        <mxCell id="q-Jmz6Y3Csw-cmWrr6Wz-31" value="" style="endArrow=none;html=1;rounded=0;" edge="1" parent="1" source="q-Jmz6Y3Csw-cmWrr6Wz-21" target="q-Jmz6Y3Csw-cmWrr6Wz-14">
          <mxGeometry width="50" height="50" relative="1" as="geometry">
            <mxPoint x="390" y="350" as="sourcePoint" />
            <mxPoint x="440" y="300" as="targetPoint" />
            <Array as="points">
              <mxPoint x="60" y="170" />
              <mxPoint x="190" y="170" />
            </Array>
          </mxGeometry>
        </mxCell>
        <mxCell id="q-Jmz6Y3Csw-cmWrr6Wz-32" value="" style="endArrow=none;html=1;rounded=0;" edge="1" parent="1" source="q-Jmz6Y3Csw-cmWrr6Wz-23" target="q-Jmz6Y3Csw-cmWrr6Wz-14">
          <mxGeometry width="50" height="50" relative="1" as="geometry">
            <mxPoint x="390" y="350" as="sourcePoint" />
            <mxPoint x="440" y="300" as="targetPoint" />
            <Array as="points">
              <mxPoint x="240" y="170" />
              <mxPoint x="190" y="170" />
            </Array>
          </mxGeometry>
        </mxCell>
        <mxCell id="q-Jmz6Y3Csw-cmWrr6Wz-33" value="" style="endArrow=none;html=1;rounded=0;" edge="1" parent="1" source="q-Jmz6Y3Csw-cmWrr6Wz-22" target="q-Jmz6Y3Csw-cmWrr6Wz-14">
          <mxGeometry width="50" height="50" relative="1" as="geometry">
            <mxPoint x="390" y="350" as="sourcePoint" />
            <mxPoint x="440" y="300" as="targetPoint" />
            <Array as="points">
              <mxPoint x="420" y="170" />
              <mxPoint x="190" y="170" />
            </Array>
          </mxGeometry>
        </mxCell>
        <mxCell id="q-Jmz6Y3Csw-cmWrr6Wz-34" value="" style="endArrow=none;html=1;rounded=0;" edge="1" parent="1" source="q-Jmz6Y3Csw-cmWrr6Wz-26" target="q-Jmz6Y3Csw-cmWrr6Wz-13">
          <mxGeometry width="50" height="50" relative="1" as="geometry">
            <mxPoint x="390" y="350" as="sourcePoint" />
            <mxPoint x="440" y="300" as="targetPoint" />
            <Array as="points">
              <mxPoint x="940" y="170" />
            </Array>
          </mxGeometry>
        </mxCell>
        <mxCell id="q-Jmz6Y3Csw-cmWrr6Wz-35" value="" style="endArrow=none;html=1;rounded=0;" edge="1" parent="1" source="q-Jmz6Y3Csw-cmWrr6Wz-25" target="q-Jmz6Y3Csw-cmWrr6Wz-13">
          <mxGeometry width="50" height="50" relative="1" as="geometry">
            <mxPoint x="390" y="350" as="sourcePoint" />
            <mxPoint x="440" y="300" as="targetPoint" />
            <Array as="points">
              <mxPoint x="1095" y="160" />
              <mxPoint x="940" y="160" />
            </Array>
          </mxGeometry>
        </mxCell>
        <mxCell id="q-Jmz6Y3Csw-cmWrr6Wz-36" value="" style="endArrow=none;html=1;rounded=0;" edge="1" parent="1" source="q-Jmz6Y3Csw-cmWrr6Wz-19" target="q-Jmz6Y3Csw-cmWrr6Wz-12">
          <mxGeometry width="50" height="50" relative="1" as="geometry">
            <mxPoint x="390" y="350" as="sourcePoint" />
            <mxPoint x="440" y="300" as="targetPoint" />
          </mxGeometry>
        </mxCell>
        <mxCell id="q-Jmz6Y3Csw-cmWrr6Wz-37" value="&lt;font color=&quot;#007fff&quot;&gt;:&lt;/font&gt;" style="text;html=1;align=center;verticalAlign=middle;resizable=0;points=[];autosize=1;strokeColor=none;fillColor=none;" vertex="1" parent="1">
          <mxGeometry x="225" y="228" width="30" height="30" as="geometry" />
        </mxCell>
        <mxCell id="q-Jmz6Y3Csw-cmWrr6Wz-38" value="&lt;font color=&quot;#007fff&quot;&gt;:&lt;/font&gt;" style="text;html=1;align=center;verticalAlign=middle;resizable=0;points=[];autosize=1;strokeColor=none;fillColor=none;" vertex="1" parent="1">
          <mxGeometry x="925" y="228" width="30" height="30" as="geometry" />
        </mxCell>
        <mxCell id="q-Jmz6Y3Csw-cmWrr6Wz-39" value="" style="endArrow=none;html=1;rounded=0;" edge="1" parent="1" source="q-Jmz6Y3Csw-cmWrr6Wz-37" target="q-Jmz6Y3Csw-cmWrr6Wz-23">
          <mxGeometry width="50" height="50" relative="1" as="geometry">
            <mxPoint x="390" y="350" as="sourcePoint" />
            <mxPoint x="440" y="300" as="targetPoint" />
          </mxGeometry>
        </mxCell>
        <mxCell id="q-Jmz6Y3Csw-cmWrr6Wz-40" value="" style="endArrow=none;html=1;rounded=0;" edge="1" parent="1" source="q-Jmz6Y3Csw-cmWrr6Wz-38" target="q-Jmz6Y3Csw-cmWrr6Wz-26">
          <mxGeometry width="50" height="50" relative="1" as="geometry">
            <mxPoint x="390" y="350" as="sourcePoint" />
            <mxPoint x="440" y="300" as="targetPoint" />
          </mxGeometry>
        </mxCell>
        <mxCell id="q-Jmz6Y3Csw-cmWrr6Wz-41" value="comillas" style="text;html=1;align=center;verticalAlign=middle;resizable=0;points=[];autosize=1;strokeColor=none;fillColor=none;" vertex="1" parent="1">
          <mxGeometry x="5" y="288" width="70" height="30" as="geometry" />
        </mxCell>
        <mxCell id="q-Jmz6Y3Csw-cmWrr6Wz-42" value="valor_etiqueta1" style="text;html=1;align=center;verticalAlign=middle;resizable=0;points=[];autosize=1;strokeColor=none;fillColor=none;" vertex="1" parent="1">
          <mxGeometry x="80" y="288" width="110" height="30" as="geometry" />
        </mxCell>
        <mxCell id="q-Jmz6Y3Csw-cmWrr6Wz-43" value="comillas" style="text;html=1;align=center;verticalAlign=middle;resizable=0;points=[];autosize=1;strokeColor=none;fillColor=none;" vertex="1" parent="1">
          <mxGeometry x="200" y="288" width="70" height="30" as="geometry" />
        </mxCell>
        <mxCell id="q-Jmz6Y3Csw-cmWrr6Wz-47" value="comillas" style="text;html=1;align=center;verticalAlign=middle;resizable=0;points=[];autosize=1;strokeColor=none;fillColor=none;" vertex="1" parent="1">
          <mxGeometry x="287.5" y="288" width="70" height="30" as="geometry" />
        </mxCell>
        <mxCell id="q-Jmz6Y3Csw-cmWrr6Wz-48" value="valor_etiqueta1" style="text;html=1;align=center;verticalAlign=middle;resizable=0;points=[];autosize=1;strokeColor=none;fillColor=none;" vertex="1" parent="1">
          <mxGeometry x="365" y="288" width="110" height="30" as="geometry" />
        </mxCell>
        <mxCell id="q-Jmz6Y3Csw-cmWrr6Wz-49" value="comillas" style="text;html=1;align=center;verticalAlign=middle;resizable=0;points=[];autosize=1;strokeColor=none;fillColor=none;" vertex="1" parent="1">
          <mxGeometry x="482.5" y="288" width="70" height="30" as="geometry" />
        </mxCell>
        <mxCell id="q-Jmz6Y3Csw-cmWrr6Wz-50" value="comillas" style="text;html=1;align=center;verticalAlign=middle;resizable=0;points=[];autosize=1;strokeColor=none;fillColor=none;" vertex="1" parent="1">
          <mxGeometry x="605" y="280" width="70" height="30" as="geometry" />
        </mxCell>
        <mxCell id="q-Jmz6Y3Csw-cmWrr6Wz-51" value="valor_etiqueta1" style="text;html=1;align=center;verticalAlign=middle;resizable=0;points=[];autosize=1;strokeColor=none;fillColor=none;" vertex="1" parent="1">
          <mxGeometry x="675" y="280" width="110" height="30" as="geometry" />
        </mxCell>
        <mxCell id="q-Jmz6Y3Csw-cmWrr6Wz-52" value="comillas" style="text;html=1;align=center;verticalAlign=middle;resizable=0;points=[];autosize=1;strokeColor=none;fillColor=none;" vertex="1" parent="1">
          <mxGeometry x="795" y="280" width="70" height="30" as="geometry" />
        </mxCell>
        <mxCell id="q-Jmz6Y3Csw-cmWrr6Wz-53" value="comillas" style="text;html=1;align=center;verticalAlign=middle;resizable=0;points=[];autosize=1;strokeColor=none;fillColor=none;" vertex="1" parent="1">
          <mxGeometry x="900" y="280" width="70" height="30" as="geometry" />
        </mxCell>
        <mxCell id="q-Jmz6Y3Csw-cmWrr6Wz-54" value="valor_etiqueta1" style="text;html=1;align=center;verticalAlign=middle;resizable=0;points=[];autosize=1;strokeColor=none;fillColor=none;" vertex="1" parent="1">
          <mxGeometry x="975" y="280" width="110" height="30" as="geometry" />
        </mxCell>
        <mxCell id="q-Jmz6Y3Csw-cmWrr6Wz-55" value="comillas" style="text;html=1;align=center;verticalAlign=middle;resizable=0;points=[];autosize=1;strokeColor=none;fillColor=none;" vertex="1" parent="1">
          <mxGeometry x="1095" y="280" width="70" height="30" as="geometry" />
        </mxCell>
        <mxCell id="q-Jmz6Y3Csw-cmWrr6Wz-56" value="" style="endArrow=none;html=1;rounded=0;" edge="1" parent="1" source="q-Jmz6Y3Csw-cmWrr6Wz-21" target="q-Jmz6Y3Csw-cmWrr6Wz-41">
          <mxGeometry width="50" height="50" relative="1" as="geometry">
            <mxPoint x="390" y="350" as="sourcePoint" />
            <mxPoint x="440" y="300" as="targetPoint" />
            <Array as="points">
              <mxPoint x="60" y="270" />
              <mxPoint x="40" y="270" />
            </Array>
          </mxGeometry>
        </mxCell>
        <mxCell id="q-Jmz6Y3Csw-cmWrr6Wz-58" value="" style="endArrow=none;html=1;rounded=0;" edge="1" parent="1" source="q-Jmz6Y3Csw-cmWrr6Wz-21" target="q-Jmz6Y3Csw-cmWrr6Wz-42">
          <mxGeometry width="50" height="50" relative="1" as="geometry">
            <mxPoint x="390" y="350" as="sourcePoint" />
            <mxPoint x="440" y="300" as="targetPoint" />
            <Array as="points">
              <mxPoint x="60" y="270" />
              <mxPoint x="135" y="270" />
            </Array>
          </mxGeometry>
        </mxCell>
        <mxCell id="q-Jmz6Y3Csw-cmWrr6Wz-59" value="" style="endArrow=none;html=1;rounded=0;" edge="1" parent="1" source="q-Jmz6Y3Csw-cmWrr6Wz-21" target="q-Jmz6Y3Csw-cmWrr6Wz-43">
          <mxGeometry width="50" height="50" relative="1" as="geometry">
            <mxPoint x="390" y="350" as="sourcePoint" />
            <mxPoint x="440" y="300" as="targetPoint" />
            <Array as="points">
              <mxPoint x="60" y="270" />
              <mxPoint x="235" y="270" />
            </Array>
          </mxGeometry>
        </mxCell>
        <mxCell id="q-Jmz6Y3Csw-cmWrr6Wz-60" value="" style="endArrow=none;html=1;rounded=0;" edge="1" parent="1" source="q-Jmz6Y3Csw-cmWrr6Wz-22" target="q-Jmz6Y3Csw-cmWrr6Wz-47">
          <mxGeometry width="50" height="50" relative="1" as="geometry">
            <mxPoint x="390" y="350" as="sourcePoint" />
            <mxPoint x="440" y="300" as="targetPoint" />
            <Array as="points">
              <mxPoint x="420" y="270" />
              <mxPoint x="323" y="270" />
            </Array>
          </mxGeometry>
        </mxCell>
        <mxCell id="q-Jmz6Y3Csw-cmWrr6Wz-61" value="" style="endArrow=none;html=1;rounded=0;" edge="1" parent="1" source="q-Jmz6Y3Csw-cmWrr6Wz-22" target="q-Jmz6Y3Csw-cmWrr6Wz-48">
          <mxGeometry width="50" height="50" relative="1" as="geometry">
            <mxPoint x="390" y="350" as="sourcePoint" />
            <mxPoint x="440" y="300" as="targetPoint" />
            <Array as="points">
              <mxPoint x="420" y="270" />
            </Array>
          </mxGeometry>
        </mxCell>
        <mxCell id="q-Jmz6Y3Csw-cmWrr6Wz-62" value="" style="endArrow=none;html=1;rounded=0;" edge="1" parent="1" source="q-Jmz6Y3Csw-cmWrr6Wz-49" target="q-Jmz6Y3Csw-cmWrr6Wz-22">
          <mxGeometry width="50" height="50" relative="1" as="geometry">
            <mxPoint x="390" y="350" as="sourcePoint" />
            <mxPoint x="440" y="300" as="targetPoint" />
            <Array as="points">
              <mxPoint x="518" y="270" />
              <mxPoint x="420" y="270" />
            </Array>
          </mxGeometry>
        </mxCell>
        <mxCell id="q-Jmz6Y3Csw-cmWrr6Wz-63" value="" style="endArrow=none;html=1;rounded=0;" edge="1" parent="1" source="q-Jmz6Y3Csw-cmWrr6Wz-24" target="q-Jmz6Y3Csw-cmWrr6Wz-50">
          <mxGeometry width="50" height="50" relative="1" as="geometry">
            <mxPoint x="390" y="350" as="sourcePoint" />
            <mxPoint x="440" y="300" as="targetPoint" />
            <Array as="points">
              <mxPoint x="745" y="270" />
              <mxPoint x="640" y="270" />
            </Array>
          </mxGeometry>
        </mxCell>
        <mxCell id="q-Jmz6Y3Csw-cmWrr6Wz-64" value="" style="endArrow=none;html=1;rounded=0;" edge="1" parent="1" source="q-Jmz6Y3Csw-cmWrr6Wz-51" target="q-Jmz6Y3Csw-cmWrr6Wz-24">
          <mxGeometry width="50" height="50" relative="1" as="geometry">
            <mxPoint x="540" y="290" as="sourcePoint" />
            <mxPoint x="590" y="240" as="targetPoint" />
            <Array as="points">
              <mxPoint x="730" y="270" />
              <mxPoint x="745" y="270" />
            </Array>
          </mxGeometry>
        </mxCell>
        <mxCell id="q-Jmz6Y3Csw-cmWrr6Wz-65" value="" style="endArrow=none;html=1;rounded=0;" edge="1" parent="1" source="q-Jmz6Y3Csw-cmWrr6Wz-24" target="q-Jmz6Y3Csw-cmWrr6Wz-52">
          <mxGeometry width="50" height="50" relative="1" as="geometry">
            <mxPoint x="840" y="290" as="sourcePoint" />
            <mxPoint x="890" y="240" as="targetPoint" />
            <Array as="points">
              <mxPoint x="745" y="270" />
              <mxPoint x="830" y="270" />
            </Array>
          </mxGeometry>
        </mxCell>
        <mxCell id="q-Jmz6Y3Csw-cmWrr6Wz-66" value="" style="endArrow=none;html=1;rounded=0;" edge="1" parent="1" source="q-Jmz6Y3Csw-cmWrr6Wz-55" target="q-Jmz6Y3Csw-cmWrr6Wz-25">
          <mxGeometry width="50" height="50" relative="1" as="geometry">
            <mxPoint x="840" y="290" as="sourcePoint" />
            <mxPoint x="890" y="240" as="targetPoint" />
            <Array as="points">
              <mxPoint x="1130" y="270" />
              <mxPoint x="1095" y="270" />
            </Array>
          </mxGeometry>
        </mxCell>
        <mxCell id="q-Jmz6Y3Csw-cmWrr6Wz-67" value="" style="endArrow=none;html=1;rounded=0;" edge="1" parent="1" source="q-Jmz6Y3Csw-cmWrr6Wz-53" target="q-Jmz6Y3Csw-cmWrr6Wz-25">
          <mxGeometry width="50" height="50" relative="1" as="geometry">
            <mxPoint x="840" y="290" as="sourcePoint" />
            <mxPoint x="890" y="240" as="targetPoint" />
            <Array as="points">
              <mxPoint x="935" y="270" />
              <mxPoint x="1095" y="270" />
            </Array>
          </mxGeometry>
        </mxCell>
        <mxCell id="q-Jmz6Y3Csw-cmWrr6Wz-68" value="" style="endArrow=none;html=1;rounded=0;" edge="1" parent="1" source="q-Jmz6Y3Csw-cmWrr6Wz-54" target="q-Jmz6Y3Csw-cmWrr6Wz-25">
          <mxGeometry width="50" height="50" relative="1" as="geometry">
            <mxPoint x="840" y="290" as="sourcePoint" />
            <mxPoint x="890" y="240" as="targetPoint" />
            <Array as="points">
              <mxPoint x="1030" y="270" />
              <mxPoint x="1095" y="270" />
            </Array>
          </mxGeometry>
        </mxCell>
        <mxCell id="q-Jmz6Y3Csw-cmWrr6Wz-69" value="&lt;font color=&quot;#007fff&quot;&gt;&quot;&lt;/font&gt;" style="text;html=1;align=center;verticalAlign=middle;resizable=0;points=[];autosize=1;strokeColor=none;fillColor=none;" vertex="1" parent="1">
          <mxGeometry x="25" y="348" width="30" height="30" as="geometry" />
        </mxCell>
        <mxCell id="q-Jmz6Y3Csw-cmWrr6Wz-70" value="&lt;font color=&quot;#007fff&quot;&gt;localizer&lt;/font&gt;" style="text;html=1;align=center;verticalAlign=middle;resizable=0;points=[];autosize=1;strokeColor=none;fillColor=none;" vertex="1" parent="1">
          <mxGeometry x="100" y="348" width="70" height="30" as="geometry" />
        </mxCell>
        <mxCell id="q-Jmz6Y3Csw-cmWrr6Wz-71" value="&lt;font color=&quot;#007fff&quot;&gt;&quot;&lt;/font&gt;" style="text;html=1;align=center;verticalAlign=middle;resizable=0;points=[];autosize=1;strokeColor=none;fillColor=none;" vertex="1" parent="1">
          <mxGeometry x="220" y="348" width="30" height="30" as="geometry" />
        </mxCell>
        <mxCell id="q-Jmz6Y3Csw-cmWrr6Wz-72" value="&lt;font color=&quot;#007fff&quot;&gt;&quot;&lt;/font&gt;" style="text;html=1;align=center;verticalAlign=middle;resizable=0;points=[];autosize=1;strokeColor=none;fillColor=none;" vertex="1" parent="1">
          <mxGeometry x="307.5" y="348" width="30" height="30" as="geometry" />
        </mxCell>
        <mxCell id="q-Jmz6Y3Csw-cmWrr6Wz-73" value="&lt;font color=&quot;#007fff&quot;&gt;A...Z0...1{32}&lt;/font&gt;" style="text;html=1;align=center;verticalAlign=middle;resizable=0;points=[];autosize=1;strokeColor=none;fillColor=none;" vertex="1" parent="1">
          <mxGeometry x="375" y="338" width="90" height="30" as="geometry" />
        </mxCell>
        <mxCell id="q-Jmz6Y3Csw-cmWrr6Wz-74" value="&lt;font color=&quot;#007fff&quot;&gt;&quot;&lt;/font&gt;" style="text;html=1;align=center;verticalAlign=middle;resizable=0;points=[];autosize=1;strokeColor=none;fillColor=none;" vertex="1" parent="1">
          <mxGeometry x="502.5" y="348" width="30" height="30" as="geometry" />
        </mxCell>
        <mxCell id="q-Jmz6Y3Csw-cmWrr6Wz-75" value="&lt;font color=&quot;#007fff&quot;&gt;&quot;&lt;/font&gt;" style="text;html=1;align=center;verticalAlign=middle;resizable=0;points=[];autosize=1;strokeColor=none;fillColor=none;" vertex="1" parent="1">
          <mxGeometry x="625" y="348" width="30" height="30" as="geometry" />
        </mxCell>
        <mxCell id="q-Jmz6Y3Csw-cmWrr6Wz-77" value="&lt;font color=&quot;#007fff&quot;&gt;IdCard&lt;/font&gt;" style="text;html=1;align=center;verticalAlign=middle;resizable=0;points=[];autosize=1;strokeColor=none;fillColor=none;" vertex="1" parent="1">
          <mxGeometry x="700" y="338" width="60" height="30" as="geometry" />
        </mxCell>
        <mxCell id="q-Jmz6Y3Csw-cmWrr6Wz-78" value="&lt;font color=&quot;#007fff&quot;&gt;&quot;&lt;/font&gt;" style="text;html=1;align=center;verticalAlign=middle;resizable=0;points=[];autosize=1;strokeColor=none;fillColor=none;" vertex="1" parent="1">
          <mxGeometry x="815" y="348" width="30" height="30" as="geometry" />
        </mxCell>
        <mxCell id="q-Jmz6Y3Csw-cmWrr6Wz-79" value="&lt;font color=&quot;#007fff&quot;&gt;&quot;&lt;/font&gt;" style="text;html=1;align=center;verticalAlign=middle;resizable=0;points=[];autosize=1;strokeColor=none;fillColor=none;" vertex="1" parent="1">
          <mxGeometry x="920" y="348" width="30" height="30" as="geometry" />
        </mxCell>
        <mxCell id="q-Jmz6Y3Csw-cmWrr6Wz-80" value="&lt;font color=&quot;#007fff&quot;&gt;&quot;&lt;/font&gt;" style="text;html=1;align=center;verticalAlign=middle;resizable=0;points=[];autosize=1;strokeColor=none;fillColor=none;" vertex="1" parent="1">
          <mxGeometry x="1115" y="348" width="30" height="30" as="geometry" />
        </mxCell>
        <mxCell id="q-Jmz6Y3Csw-cmWrr6Wz-81" value="&lt;font color=&quot;#007fff&quot;&gt;0...9{8}A...Z{1}&lt;/font&gt;" style="text;html=1;align=center;verticalAlign=middle;resizable=0;points=[];autosize=1;strokeColor=none;fillColor=none;" vertex="1" parent="1">
          <mxGeometry x="980" y="338" width="100" height="30" as="geometry" />
        </mxCell>
        <mxCell id="q-Jmz6Y3Csw-cmWrr6Wz-82" value="" style="endArrow=none;html=1;rounded=0;" edge="1" parent="1" source="q-Jmz6Y3Csw-cmWrr6Wz-41" target="q-Jmz6Y3Csw-cmWrr6Wz-69">
          <mxGeometry width="50" height="50" relative="1" as="geometry">
            <mxPoint x="40" y="290" as="sourcePoint" />
            <mxPoint x="90" y="240" as="targetPoint" />
          </mxGeometry>
        </mxCell>
        <mxCell id="q-Jmz6Y3Csw-cmWrr6Wz-83" value="" style="endArrow=none;html=1;rounded=0;" edge="1" parent="1" source="q-Jmz6Y3Csw-cmWrr6Wz-42" target="q-Jmz6Y3Csw-cmWrr6Wz-70">
          <mxGeometry width="50" height="50" relative="1" as="geometry">
            <mxPoint x="40" y="290" as="sourcePoint" />
            <mxPoint x="90" y="240" as="targetPoint" />
          </mxGeometry>
        </mxCell>
        <mxCell id="q-Jmz6Y3Csw-cmWrr6Wz-86" value="" style="endArrow=none;html=1;rounded=0;" edge="1" parent="1" source="q-Jmz6Y3Csw-cmWrr6Wz-47" target="q-Jmz6Y3Csw-cmWrr6Wz-72">
          <mxGeometry width="50" height="50" relative="1" as="geometry">
            <mxPoint x="360" y="290" as="sourcePoint" />
            <mxPoint x="410" y="240" as="targetPoint" />
          </mxGeometry>
        </mxCell>
        <mxCell id="q-Jmz6Y3Csw-cmWrr6Wz-87" value="" style="endArrow=none;html=1;rounded=0;" edge="1" parent="1" source="q-Jmz6Y3Csw-cmWrr6Wz-43" target="q-Jmz6Y3Csw-cmWrr6Wz-71">
          <mxGeometry width="50" height="50" relative="1" as="geometry">
            <mxPoint x="360" y="290" as="sourcePoint" />
            <mxPoint x="410" y="240" as="targetPoint" />
          </mxGeometry>
        </mxCell>
        <mxCell id="q-Jmz6Y3Csw-cmWrr6Wz-88" value="" style="endArrow=none;html=1;rounded=0;" edge="1" parent="1" source="q-Jmz6Y3Csw-cmWrr6Wz-48" target="q-Jmz6Y3Csw-cmWrr6Wz-73">
          <mxGeometry width="50" height="50" relative="1" as="geometry">
            <mxPoint x="360" y="290" as="sourcePoint" />
            <mxPoint x="410" y="240" as="targetPoint" />
          </mxGeometry>
        </mxCell>
        <mxCell id="q-Jmz6Y3Csw-cmWrr6Wz-89" value="" style="endArrow=none;html=1;rounded=0;" edge="1" parent="1" source="q-Jmz6Y3Csw-cmWrr6Wz-49" target="q-Jmz6Y3Csw-cmWrr6Wz-74">
          <mxGeometry width="50" height="50" relative="1" as="geometry">
            <mxPoint x="360" y="290" as="sourcePoint" />
            <mxPoint x="410" y="240" as="targetPoint" />
          </mxGeometry>
        </mxCell>
        <mxCell id="q-Jmz6Y3Csw-cmWrr6Wz-90" value="" style="endArrow=none;html=1;rounded=0;" edge="1" parent="1" source="q-Jmz6Y3Csw-cmWrr6Wz-52" target="q-Jmz6Y3Csw-cmWrr6Wz-78">
          <mxGeometry width="50" height="50" relative="1" as="geometry">
            <mxPoint x="800" y="290" as="sourcePoint" />
            <mxPoint x="850" y="240" as="targetPoint" />
          </mxGeometry>
        </mxCell>
        <mxCell id="q-Jmz6Y3Csw-cmWrr6Wz-91" value="" style="endArrow=none;html=1;rounded=0;" edge="1" parent="1" source="q-Jmz6Y3Csw-cmWrr6Wz-51" target="q-Jmz6Y3Csw-cmWrr6Wz-77">
          <mxGeometry width="50" height="50" relative="1" as="geometry">
            <mxPoint x="800" y="290" as="sourcePoint" />
            <mxPoint x="850" y="240" as="targetPoint" />
          </mxGeometry>
        </mxCell>
        <mxCell id="q-Jmz6Y3Csw-cmWrr6Wz-92" value="" style="endArrow=none;html=1;rounded=0;" edge="1" parent="1" source="q-Jmz6Y3Csw-cmWrr6Wz-50" target="q-Jmz6Y3Csw-cmWrr6Wz-75">
          <mxGeometry width="50" height="50" relative="1" as="geometry">
            <mxPoint x="800" y="290" as="sourcePoint" />
            <mxPoint x="850" y="240" as="targetPoint" />
          </mxGeometry>
        </mxCell>
        <mxCell id="q-Jmz6Y3Csw-cmWrr6Wz-93" value="" style="endArrow=none;html=1;rounded=0;" edge="1" parent="1" source="q-Jmz6Y3Csw-cmWrr6Wz-53" target="q-Jmz6Y3Csw-cmWrr6Wz-79">
          <mxGeometry width="50" height="50" relative="1" as="geometry">
            <mxPoint x="800" y="290" as="sourcePoint" />
            <mxPoint x="850" y="240" as="targetPoint" />
          </mxGeometry>
        </mxCell>
        <mxCell id="q-Jmz6Y3Csw-cmWrr6Wz-94" value="" style="endArrow=none;html=1;rounded=0;" edge="1" parent="1" source="q-Jmz6Y3Csw-cmWrr6Wz-54" target="q-Jmz6Y3Csw-cmWrr6Wz-81">
          <mxGeometry width="50" height="50" relative="1" as="geometry">
            <mxPoint x="800" y="290" as="sourcePoint" />
            <mxPoint x="850" y="240" as="targetPoint" />
          </mxGeometry>
        </mxCell>
        <mxCell id="q-Jmz6Y3Csw-cmWrr6Wz-95" value="" style="endArrow=none;html=1;rounded=0;" edge="1" parent="1" source="q-Jmz6Y3Csw-cmWrr6Wz-55" target="q-Jmz6Y3Csw-cmWrr6Wz-80">
          <mxGeometry width="50" height="50" relative="1" as="geometry">
            <mxPoint x="800" y="290" as="sourcePoint" />
            <mxPoint x="850" y="240" as="targetPoint" />
          </mxGeometry>
        </mxCell>
        <mxCell id="q-Jmz6Y3Csw-cmWrr6Wz-96" value="1" style="text;html=1;align=center;verticalAlign=middle;resizable=0;points=[];autosize=1;strokeColor=none;fillColor=none;" vertex="1" parent="1">
          <mxGeometry x="495" y="18" width="30" height="30" as="geometry" />
        </mxCell>
        <mxCell id="q-Jmz6Y3Csw-cmWrr6Wz-97" value="2" style="text;html=1;align=center;verticalAlign=middle;resizable=0;points=[];autosize=1;strokeColor=none;fillColor=none;" vertex="1" parent="1">
          <mxGeometry x="85" y="58" width="30" height="30" as="geometry" />
        </mxCell>
        <mxCell id="q-Jmz6Y3Csw-cmWrr6Wz-98" value="3" style="text;html=1;align=center;verticalAlign=middle;resizable=0;points=[];autosize=1;strokeColor=none;fillColor=none;" vertex="1" parent="1">
          <mxGeometry x="615" y="68" width="30" height="30" as="geometry" />
        </mxCell>
        <mxCell id="q-Jmz6Y3Csw-cmWrr6Wz-99" value="4" style="text;html=1;align=center;verticalAlign=middle;resizable=0;points=[];autosize=1;strokeColor=none;fillColor=none;" vertex="1" parent="1">
          <mxGeometry x="1135" y="58" width="30" height="30" as="geometry" />
        </mxCell>
        <mxCell id="q-Jmz6Y3Csw-cmWrr6Wz-100" value="5" style="text;html=1;align=center;verticalAlign=middle;resizable=0;points=[];autosize=1;strokeColor=none;fillColor=none;" vertex="1" parent="1">
          <mxGeometry x="55" y="108" width="30" height="30" as="geometry" />
        </mxCell>
        <mxCell id="q-Jmz6Y3Csw-cmWrr6Wz-101" value="6" style="text;html=1;align=center;verticalAlign=middle;resizable=0;points=[];autosize=1;strokeColor=none;fillColor=none;" vertex="1" parent="1">
          <mxGeometry x="210" y="118" width="30" height="30" as="geometry" />
        </mxCell>
        <mxCell id="q-Jmz6Y3Csw-cmWrr6Wz-102" value="7" style="text;html=1;align=center;verticalAlign=middle;resizable=0;points=[];autosize=1;strokeColor=none;fillColor=none;" vertex="1" parent="1">
          <mxGeometry x="615" y="118" width="30" height="30" as="geometry" />
        </mxCell>
        <mxCell id="q-Jmz6Y3Csw-cmWrr6Wz-103" value="8" style="text;html=1;align=center;verticalAlign=middle;resizable=0;points=[];autosize=1;strokeColor=none;fillColor=none;" vertex="1" parent="1">
          <mxGeometry x="905" y="108" width="30" height="30" as="geometry" />
        </mxCell>
        <mxCell id="q-Jmz6Y3Csw-cmWrr6Wz-104" value="9" style="text;html=1;align=center;verticalAlign=middle;resizable=0;points=[];autosize=1;strokeColor=none;fillColor=none;" vertex="1" parent="1">
          <mxGeometry x="1125" y="118" width="30" height="30" as="geometry" />
        </mxCell>
        <mxCell id="q-Jmz6Y3Csw-cmWrr6Wz-107" value="10" style="text;html=1;align=center;verticalAlign=middle;resizable=0;points=[];autosize=1;strokeColor=none;fillColor=none;" vertex="1" parent="1">
          <mxGeometry x="95" y="179" width="40" height="30" as="geometry" />
        </mxCell>
        <mxCell id="q-Jmz6Y3Csw-cmWrr6Wz-108" value="11" style="text;html=1;align=center;verticalAlign=middle;resizable=0;points=[];autosize=1;strokeColor=none;fillColor=none;" vertex="1" parent="1">
          <mxGeometry x="270" y="180" width="40" height="30" as="geometry" />
        </mxCell>
        <mxCell id="q-Jmz6Y3Csw-cmWrr6Wz-109" value="13" style="text;html=1;align=center;verticalAlign=middle;resizable=0;points=[];autosize=1;strokeColor=none;fillColor=none;" vertex="1" parent="1">
          <mxGeometry x="590" y="179" width="40" height="30" as="geometry" />
        </mxCell>
        <mxCell id="q-Jmz6Y3Csw-cmWrr6Wz-110" value="14" style="text;html=1;align=center;verticalAlign=middle;resizable=0;points=[];autosize=1;strokeColor=none;fillColor=none;" vertex="1" parent="1">
          <mxGeometry x="785" y="180" width="40" height="30" as="geometry" />
        </mxCell>
        <mxCell id="q-Jmz6Y3Csw-cmWrr6Wz-111" value="12" style="text;html=1;align=center;verticalAlign=middle;resizable=0;points=[];autosize=1;strokeColor=none;fillColor=none;" vertex="1" parent="1">
          <mxGeometry x="460" y="178" width="40" height="30" as="geometry" />
        </mxCell>
        <mxCell id="q-Jmz6Y3Csw-cmWrr6Wz-112" value="16" style="text;html=1;align=center;verticalAlign=middle;resizable=0;points=[];autosize=1;strokeColor=none;fillColor=none;" vertex="1" parent="1">
          <mxGeometry x="1120" y="170" width="40" height="30" as="geometry" />
        </mxCell>
        <mxCell id="q-Jmz6Y3Csw-cmWrr6Wz-113" value="15" style="text;html=1;align=center;verticalAlign=middle;resizable=0;points=[];autosize=1;strokeColor=none;fillColor=none;" vertex="1" parent="1">
          <mxGeometry x="950" y="170" width="40" height="30" as="geometry" />
        </mxCell>
        <mxCell id="q-Jmz6Y3Csw-cmWrr6Wz-114" value="17" style="text;html=1;align=center;verticalAlign=middle;resizable=0;points=[];autosize=1;strokeColor=none;fillColor=none;" vertex="1" parent="1">
          <mxGeometry x="45" y="270" width="40" height="30" as="geometry" />
        </mxCell>
        <mxCell id="q-Jmz6Y3Csw-cmWrr6Wz-115" value="18" style="text;html=1;align=center;verticalAlign=middle;resizable=0;points=[];autosize=1;strokeColor=none;fillColor=none;" vertex="1" parent="1">
          <mxGeometry x="140" y="270" width="40" height="30" as="geometry" />
        </mxCell>
        <mxCell id="q-Jmz6Y3Csw-cmWrr6Wz-116" value="19" style="text;html=1;align=center;verticalAlign=middle;resizable=0;points=[];autosize=1;strokeColor=none;fillColor=none;" vertex="1" parent="1">
          <mxGeometry x="240" y="268" width="40" height="30" as="geometry" />
        </mxCell>
        <mxCell id="q-Jmz6Y3Csw-cmWrr6Wz-117" value="20" style="text;html=1;align=center;verticalAlign=middle;resizable=0;points=[];autosize=1;strokeColor=none;fillColor=none;" vertex="1" parent="1">
          <mxGeometry x="250" y="228" width="40" height="30" as="geometry" />
        </mxCell>
        <mxCell id="q-Jmz6Y3Csw-cmWrr6Wz-118" value="21" style="text;html=1;align=center;verticalAlign=middle;resizable=0;points=[];autosize=1;strokeColor=none;fillColor=none;" vertex="1" parent="1">
          <mxGeometry x="325" y="268" width="40" height="30" as="geometry" />
        </mxCell>
        <mxCell id="q-Jmz6Y3Csw-cmWrr6Wz-119" value="22" style="text;html=1;align=center;verticalAlign=middle;resizable=0;points=[];autosize=1;strokeColor=none;fillColor=none;" vertex="1" parent="1">
          <mxGeometry x="425" y="268" width="40" height="30" as="geometry" />
        </mxCell>
        <mxCell id="q-Jmz6Y3Csw-cmWrr6Wz-120" value="23" style="text;html=1;align=center;verticalAlign=middle;resizable=0;points=[];autosize=1;strokeColor=none;fillColor=none;" vertex="1" parent="1">
          <mxGeometry x="520" y="268" width="40" height="30" as="geometry" />
        </mxCell>
        <mxCell id="q-Jmz6Y3Csw-cmWrr6Wz-121" value="24" style="text;html=1;align=center;verticalAlign=middle;resizable=0;points=[];autosize=1;strokeColor=none;fillColor=none;" vertex="1" parent="1">
          <mxGeometry x="600" y="258" width="40" height="30" as="geometry" />
        </mxCell>
        <mxCell id="q-Jmz6Y3Csw-cmWrr6Wz-122" value="25" style="text;html=1;align=center;verticalAlign=middle;resizable=0;points=[];autosize=1;strokeColor=none;fillColor=none;" vertex="1" parent="1">
          <mxGeometry x="680" y="268" width="40" height="30" as="geometry" />
        </mxCell>
        <mxCell id="q-Jmz6Y3Csw-cmWrr6Wz-123" value="26" style="text;html=1;align=center;verticalAlign=middle;resizable=0;points=[];autosize=1;strokeColor=none;fillColor=none;" vertex="1" parent="1">
          <mxGeometry x="825" y="258" width="40" height="30" as="geometry" />
        </mxCell>
        <mxCell id="q-Jmz6Y3Csw-cmWrr6Wz-124" value="27" style="text;html=1;align=center;verticalAlign=middle;resizable=0;points=[];autosize=1;strokeColor=none;fillColor=none;" vertex="1" parent="1">
          <mxGeometry x="895" y="228" width="40" height="30" as="geometry" />
        </mxCell>
        <mxCell id="q-Jmz6Y3Csw-cmWrr6Wz-125" value="28" style="text;html=1;align=center;verticalAlign=middle;resizable=0;points=[];autosize=1;strokeColor=none;fillColor=none;" vertex="1" parent="1">
          <mxGeometry x="935" y="268" width="40" height="30" as="geometry" />
        </mxCell>
        <mxCell id="q-Jmz6Y3Csw-cmWrr6Wz-126" value="29" style="text;html=1;align=center;verticalAlign=middle;resizable=0;points=[];autosize=1;strokeColor=none;fillColor=none;" vertex="1" parent="1">
          <mxGeometry x="1030" y="268" width="40" height="30" as="geometry" />
        </mxCell>
        <mxCell id="q-Jmz6Y3Csw-cmWrr6Wz-127" value="30" style="text;html=1;align=center;verticalAlign=middle;resizable=0;points=[];autosize=1;strokeColor=none;fillColor=none;" vertex="1" parent="1">
          <mxGeometry x="1125" y="258" width="40" height="30" as="geometry" />
        </mxCell>
        <mxCell id="q-Jmz6Y3Csw-cmWrr6Wz-128" value="31" style="text;html=1;align=center;verticalAlign=middle;resizable=0;points=[];autosize=1;strokeColor=none;fillColor=none;" vertex="1" parent="1">
          <mxGeometry x="10" y="368" width="40" height="30" as="geometry" />
        </mxCell>
        <mxCell id="q-Jmz6Y3Csw-cmWrr6Wz-129" value="32" style="text;html=1;align=center;verticalAlign=middle;resizable=0;points=[];autosize=1;strokeColor=none;fillColor=none;" vertex="1" parent="1">
          <mxGeometry x="120" y="378" width="40" height="30" as="geometry" />
        </mxCell>
        <mxCell id="q-Jmz6Y3Csw-cmWrr6Wz-130" value="33" style="text;html=1;align=center;verticalAlign=middle;resizable=0;points=[];autosize=1;strokeColor=none;fillColor=none;" vertex="1" parent="1">
          <mxGeometry x="210" y="368" width="40" height="30" as="geometry" />
        </mxCell>
        <mxCell id="q-Jmz6Y3Csw-cmWrr6Wz-131" value="34" style="text;html=1;align=center;verticalAlign=middle;resizable=0;points=[];autosize=1;strokeColor=none;fillColor=none;" vertex="1" parent="1">
          <mxGeometry x="310" y="368" width="40" height="30" as="geometry" />
        </mxCell>
        <mxCell id="q-Jmz6Y3Csw-cmWrr6Wz-132" value="35" style="text;html=1;align=center;verticalAlign=middle;resizable=0;points=[];autosize=1;strokeColor=none;fillColor=none;" vertex="1" parent="1">
          <mxGeometry x="390" y="368" width="40" height="30" as="geometry" />
        </mxCell>
        <mxCell id="q-Jmz6Y3Csw-cmWrr6Wz-133" value="36" style="text;html=1;align=center;verticalAlign=middle;resizable=0;points=[];autosize=1;strokeColor=none;fillColor=none;" vertex="1" parent="1">
          <mxGeometry x="500" y="368" width="40" height="30" as="geometry" />
        </mxCell>
        <mxCell id="q-Jmz6Y3Csw-cmWrr6Wz-134" value="37" style="text;html=1;align=center;verticalAlign=middle;resizable=0;points=[];autosize=1;strokeColor=none;fillColor=none;" vertex="1" parent="1">
          <mxGeometry x="620" y="368" width="40" height="30" as="geometry" />
        </mxCell>
        <mxCell id="q-Jmz6Y3Csw-cmWrr6Wz-135" value="38" style="text;html=1;align=center;verticalAlign=middle;resizable=0;points=[];autosize=1;strokeColor=none;fillColor=none;" vertex="1" parent="1">
          <mxGeometry x="710" y="368" width="40" height="30" as="geometry" />
        </mxCell>
        <mxCell id="q-Jmz6Y3Csw-cmWrr6Wz-136" value="39" style="text;html=1;align=center;verticalAlign=middle;resizable=0;points=[];autosize=1;strokeColor=none;fillColor=none;" vertex="1" parent="1">
          <mxGeometry x="810" y="368" width="40" height="30" as="geometry" />
        </mxCell>
        <mxCell id="q-Jmz6Y3Csw-cmWrr6Wz-137" value="40" style="text;html=1;align=center;verticalAlign=middle;resizable=0;points=[];autosize=1;strokeColor=none;fillColor=none;" vertex="1" parent="1">
          <mxGeometry x="915" y="368" width="40" height="30" as="geometry" />
        </mxCell>
        <mxCell id="q-Jmz6Y3Csw-cmWrr6Wz-138" value="41" style="text;html=1;align=center;verticalAlign=middle;resizable=0;points=[];autosize=1;strokeColor=none;fillColor=none;" vertex="1" parent="1">
          <mxGeometry x="1010" y="368" width="40" height="30" as="geometry" />
        </mxCell>
        <mxCell id="q-Jmz6Y3Csw-cmWrr6Wz-139" value="42" style="text;html=1;align=center;verticalAlign=middle;resizable=0;points=[];autosize=1;strokeColor=none;fillColor=none;" vertex="1" parent="1">
          <mxGeometry x="1110" y="368" width="40" height="30" as="geometry" />
        </mxCell>
      </root>
    </mxGraphModel>
  </diagram>
</mxfile>
